HIERARCHY
ROOT Hips
{
  OFFSET 6.32866 101.181 192.99
  CHANNELS 6 Xposition Yposition Zposition Zrotation Xrotation Yrotation
  JOINT RightUpLeg
  {
    OFFSET -8.9458 -8.66707 0.101652
    CHANNELS 3 Zrotation Xrotation Yrotation
    JOINT RightLeg
    {
      OFFSET 0 -44.4227 1.3727
      CHANNELS 3 Zrotation Xrotation Yrotation
      JOINT RightFoot
      {
        OFFSET 0.253549 -42.0924 -1.46059
        CHANNELS 3 Zrotation Xrotation Yrotation
        JOINT RightToes
        {
          OFFSET 0.04 -4.41509 8.4991
          CHANNELS 3 Zrotation Xrotation Yrotation
          End Site
          {
            OFFSET -0.08 -0.137448 9.77979
          }
        }
      }
    }
  }
  JOINT Spine
  {
    OFFSET 0 11.8905 0
    CHANNELS 3 Zrotation Xrotation Yrotation
    JOINT Spine1
    {
      OFFSET 0 25.6574 0.127663
      CHANNELS 3 Zrotation Xrotation Yrotation
      JOINT HEad
      {
        OFFSET 0 8.73416 0.011341
        CHANNELS 3 Zrotation Xrotation Yrotation
        End Site
        {
          OFFSET -0.29 12.7742 2.51395
        }
      }
      JOINT LeftShoulder1
      {
        OFFSET 8.99 -0.362252 -0.22
        CHANNELS 3 Zrotation Xrotation Yrotation
        JOINT LeftArm
        {
          OFFSET 10.2827 -0.00338 0.322123
          CHANNELS 3 Zrotation Xrotation Yrotation
          JOINT LeftForeArm
          {
            OFFSET 32.7669 0.099144 -1.42434
            CHANNELS 3 Zrotation Xrotation Yrotation
            JOINT LeftHand
            {
              OFFSET 27.5643 0.085362 1.02216
              CHANNELS 3 Zrotation Xrotation Yrotation
              End Site
              {
                OFFSET 16.7443 -0.6 1.50291
              }
            }
          }
        }
      }
      JOINT RightShoulder
      {
        OFFSET -8.99 -0.362252 -0.22
        CHANNELS 3 Zrotation Xrotation Yrotation
        JOINT RightArm
        {
          OFFSET -10.2827 -0.00338 0.322123
          CHANNELS 3 Zrotation Xrotation Yrotation
          JOINT RightForeArm
          {
            OFFSET -32.8971 0.099144 -1.42434
            CHANNELS 3 Zrotation Xrotation Yrotation
            JOINT RightHand
            {
              OFFSET -27.4921 0.085362 1.02216
              CHANNELS 3 Zrotation Xrotation Yrotation
              End Site
              {
                OFFSET -16.6312 -0.6 1.50291
              }
            }
          }
        }
      }
    }
  }
  JOINT LeftUpLeg
  {
    OFFSET 8.9458 -8.66707 0.101652
    CHANNELS 3 Zrotation Xrotation Yrotation
    JOINT LeftLeg
    {
      OFFSET 0 -44.4227 1.3727
      CHANNELS 3 Zrotation Xrotation Yrotation
      JOINT LeftFoot
      {
        OFFSET -0.253549 -42.0924 -1.46059
        CHANNELS 3 Zrotation Xrotation Yrotation
        JOINT LeftToes
        {
          OFFSET -0.04 -4.41509 8.4991
          CHANNELS 3 Zrotation Xrotation Yrotation
          End Site
          {
            OFFSET 0.08 -0.047448 9.77979
          }
        }
      }
    }
  }
}
MOTION
Frames:	9
Frame Time:	0.0166667
3.01561 100.903 230.258 0.437765 -0.0803339 177.991 7.60935 -24.967 0.649817 -0.931286 22.2753 -8.15658 -0.491452 3.18854 -0.146519 0.0462048 0.000533964 0.662642 0.765405 3.37472 -0.33904 0.261599 -4.98027 -0.221948 1.18892 1.95734 0.387024 -1.2424e-017 0 -0 -96.0537 -25.1072 -22.4776 -20.0472 16.8652 -27.584 0.368473 9.90896 -0.00117925 0.620992 0.253506 -0.685612 72.9673 -41.6881 -14.0169 21.6685 13.7395 9.43045 -0.369625 9.91382 0.00119887 0.00309181 5.04267 -0.00438132 -6.87201 35.7109 14.7811 -10.0754 4.59943 0.72619 -2.39019e-012 2.3218e-012 2.8291e-012 
3.13414 100.759 228.085 1.54449 -0.135107 177.651 9.03625 -24.6286 2.76291 -0.176756 24.2714 -9.65584 -0.620968 1.89382 -0.15389 0.0789214 0.684957 0.298329 1.2728 3.4372 -0.0330668 2.42384 -5.29731 -0.162972 0.0607198 2.31681 0.634851 4.96962e-016 0 7.95139e-016 -96.6672 -26.4515 -21.2196 -20.3544 16.7013 -26.4246 0.368473 9.90896 -0.00117925 -1.21225 0.246864 -0.0665953 74.8593 -41.2958 -12.7166 21.5336 13.7136 9.28804 -0.369625 9.91382 0.00119887 1.76639 2.87344 1.96097 -5.45879 40.2271 13.072 -11.0012 11.0288 1.43971 11.2893 1.51433 -4.76321 
3.27479 100.596 225.951 2.50598 -0.219555 177.362 10.2367 -24.3261 4.03736 0.473533 26.252 -10.4642 -0.874425 0.50457 -0.162645 0.201688 1.00492 -0.133006 1.75296 3.48593 0.221123 4.27534 -5.54888 -0.113311 -0.909157 2.56099 0.87944 7.70291e-016 0 3.97569e-016 -97.0566 -27.7605 -19.9886 -20.6634 16.532 -25.2808 0.368473 9.90896 -0.00117925 -2.75734 0.243527 0.533824 76.7492 -40.8091 -11.2197 21.4083 13.7037 9.22412 -0.369625 9.91382 0.00119887 3.39483 0.535429 3.55863 -3.93862 44.8576 11.1993 -11.7721 16.1465 2.02826 19.4088 3.91872 -7.77153 
3.48115 100.324 223.915 3.11797 -0.416177 177.182 10.9447 -24.3259 2.72778 0.410648 28.493 -8.83162 -1.52878 -1.24429 -0.173136 0.607901 0.184832 -0.871222 2.20141 3.49423 0.330576 5.31653 -5.65893 -0.087607 -1.44187 2.53645 1.15349 -1.73937e-016 3.97569e-016 -7.95139e-016 -96.9172 -28.9879 -18.8373 -21.0327 16.3732 -24.1667 0.368473 9.90896 -0.00117925 -3.5172 0.248624 1.10631 78.6162 -40.0954 -9.21809 21.3026 13.7376 9.37954 -0.369625 9.91382 0.00119887 4.3517 -2.32248 4.33751 -2.52037 50.0457 8.31245 -11.7545 17.604 2.15935 17.9009 9.62569 -5.9687 
3.71091 100.146 221.958 3.41473 -0.596284 177.134 11.2368 -24.1114 0.794465 0.000121623 30.2733 -6.75574 -2.24864 -2.93559 -0.189784 0.97406 -0.906249 -1.46447 2.52677 3.48772 0.366771 5.79907 -5.5938 -0.079536 -1.71839 2.24277 1.34493 3.10601e-016 -3.97569e-016 -0 -96.5412 -30.1018 -17.7882 -21.3365 16.2091 -23.093 0.368473 9.90896 -0.00117925 -3.83159 0.260117 1.60448 80.4879 -39.1745 -6.86677 21.2252 13.7965 9.6458 -0.369625 9.91382 0.00119887 4.8584 -5.32412 4.23644 -1.10177 54.7926 6.46607 -11.1881 17.2346 2.03047 10.5011 15.2318 -1.39692 
3.93552 100.307 220.091 3.30449 -0.635238 177.32 11.0284 -23.1333 -0.152945 -0.0919426 30.7064 -6.22121 -2.75816 -4.14729 -0.219523 0.996291 -1.54824 -1.29568 2.56328 3.48022 0.376572 5.74726 -5.23539 -0.0907068 -1.82375 1.53112 1.26617 -9.06955e-016 -3.97569e-016 -0 -96.1782 -30.9753 -16.9606 -21.4167 16.0265 -22.0989 0.368473 9.90896 -0.00117925 -3.7987 0.27849 1.91387 82.3699 -37.975 -4.15553 21.2268 13.8752 9.967 -0.369625 9.91382 0.00119887 4.84281 -8.22051 2.65895 -1.6481 58.1695 9.93219 -10.1631 16.0649 1.74481 -0.894494 17.616 5.69057 
4.15732 100.584 218.277 2.96451 -0.603548 177.559 10.5996 -21.8617 -0.780451 -0.125536 30.633 -6.07937 -3.15594 -5.15903 -0.254791 1.00183 -2.07244 -1.09937 2.5283 3.48033 0.340946 5.3452 -4.76105 -0.111835 -1.78383 0.693214 1.17767 -4.84538e-016 1.98785e-016 3.97569e-016 -95.6772 -31.8493 -16.1294 -21.4263 15.8339 -21.1145 0.368473 9.90896 -0.00117925 -3.64564 0.301326 2.22941 84.264 -36.6404 -1.29456 21.1922 13.9611 10.3262 -0.369625 9.91382 0.00119887 4.34878 -10.9951 0.662997 -3.43777 60.3461 15.3723 -8.84745 14.152 1.37436 -13.227 17.4654 12.8415 
4.36806 100.842 216.479 2.51109 -0.528806 177.708 10.1746 -20.5742 -1.13528 -0.260196 30.5826 -5.80061 -3.43593 -6.06957 -0.288762 1.26624 -2.63743 -1.61035 2.59686 3.50525 0.242201 4.73814 -4.32893 -0.135269 -1.6106 -0.00504629 1.31595 -3.78933e-016 0 -0 -94.8726 -32.9558 -15.044 -21.4777 15.6325 -20.0717 0.368473 9.90896 -0.00117925 -3.61047 0.332143 2.76245 86.2397 -35.3619 1.5711 20.9942 14.0244 10.6117 -0.369625 9.91382 0.00119887 3.62972 -13.5474 -0.822127 -4.24777 61.5293 18.9915 -7.35975 11.8659 1.01122 -22.3655 14.3877 17.131 
4.5709 101.059 214.701 2.03338 -0.415089 177.765 9.73913 -19.2727 -1.50497 -0.461992 30.5722 -5.36914 -3.63503 -6.99959 -0.326266 1.53178 -3.03871 -2.21328 2.7305 3.54304 0.123165 4.06624 -3.8785 -0.15778 -1.39227 -0.634314 1.56325 -8.29305e-016 4.96962e-017 7.95139e-016 -93.929 -34.1948 -13.8468 -21.5301 15.4239 -19.0056 0.368473 9.90896 -0.00117925 -3.75926 0.353499 3.34935 88.3301 -34.0093 4.40522 20.7229 14.1118 11.0516 -0.369625 9.91382 0.00119887 2.83217 -15.8701 -1.91678 -4.3772 61.8307 21.377 -5.89919 9.29863 0.681515 -28.4264 10.3677 19.3447 
